<svg xmlns="http://www.w3.org/2000/svg" width="1925" height="800" viewBox="0 0 1925 800"><g><g><path fill="#fff" d="M1827.19 300.66C1618.975 679.37 1322.733 53.083 903.97 61.205c-158.595 3.076-355.52 111.14-533.611 293.62-178.09 182.482-332.641-23.69-379.617 27.937-10.249 11.265-10.341 332.584-10.462 332.883-1.321-.855 1846.91 0 1846.91 0s.978-415.87 0-414.985z"/><path fill="#a0a3b0" d="M1827.19 300.66C1618.975 679.37 1322.733 53.083 903.97 61.205c-158.595 3.076-355.52 111.14-533.611 293.62-178.09 182.482-332.641-23.69-379.617 27.937-10.249 11.265-10.341 332.584-10.462 332.883-1.321-.855 1846.91 0 1846.91 0s.978-415.87 0-414.985z"/></g><g><path fill="#fff" d="M2376.44 198.038c-78.019 162.718-158.89 218.108-242.165 210.701-83.83-6.668-170.063-76.132-271.654-146.044C1663.467 113.787 1398.801-12.25 1122.9 1.61c-208.738 9.964-444.055 119.04-664.606 341.624C234.837 569.569 32.587 309.086-25.22 371.669c-12.856 14.076-12.91 427.796-13.094 428.17-1.695-1.145 2377.555.133 2377.57.003.842-4.033-3.229-10.034-1.934-51.3.703-38.87 6.772-113.008 14.205-197.899 7.35-84.264 16.072-179.317 20.252-245.908 4.61-67.758 4.678-107.056 4.662-106.697"/><path fill="#c60005" d="M2376.44 198.038c-78.019 162.718-158.89 218.108-242.165 210.701-83.83-6.668-170.063-76.132-271.654-146.044C1663.467 113.787 1398.801-12.25 1122.9 1.61c-208.738 9.964-444.055 119.04-664.606 341.624C234.837 569.569 32.587 309.086-25.22 371.669c-12.856 14.076-12.91 427.796-13.094 428.17-1.695-1.145 2377.555.133 2377.57.003.842-4.033-3.229-10.034-1.934-51.3.703-38.87 6.772-113.008 14.205-197.899 7.35-84.264 16.072-179.317 20.252-245.908 4.61-67.758 4.678-107.056 4.662-106.697"/></g></g></svg>